<svg version="1.1" id="Layer_1" xmlns="http://www.w3.org/2000/svg" xmlns:xlink="http://www.w3.org/1999/xlink" x="0px" y="0px"
	 width="100%" viewBox="0 0 56 76" enable-background="new 0 0 56 76" xml:space="preserve">
<path fill="#000000" opacity="1.000000" stroke="none" 
	d="
M29.000004,77.000000 
	C19.333338,77.000000 10.166671,77.000000 1.000003,77.000000 
	C1.000002,51.666668 1.000002,26.333336 1.000001,1.000003 
	C19.666666,1.000002 38.333332,1.000002 57.000000,1.000001 
	C57.000000,26.333330 57.000000,51.666660 57.000000,77.000000 
	C47.833336,77.000000 38.666668,77.000000 29.000004,77.000000 
M18.167950,19.022490 
	C17.777945,19.458155 17.063005,19.881289 17.045650,20.331324 
	C16.653606,30.497320 16.259340,40.665035 16.100351,50.836102 
	C16.078674,52.222870 17.303782,53.629128 17.999859,55.839649 
	C18.316755,62.426369 19.890123,63.983192 26.249992,63.988861 
	C30.574049,63.992718 34.933350,64.304260 39.204384,63.828018 
	C40.854210,63.644054 42.303814,61.664467 43.844643,60.502953 
	C42.387356,59.646698 40.989372,58.206165 39.460918,58.051029 
	C35.838997,57.683395 32.124943,58.189976 28.512869,57.776985 
	C27.262712,57.634041 25.329979,55.906700 25.215019,54.752998 
	C24.809586,50.684238 25.057320,46.550400 25.057320,42.623703 
	C30.550550,40.672527 36.365589,43.924873 41.120258,39.620609 
	C39.677940,38.549149 38.195614,37.999565 36.718388,38.012939 
	C22.888958,38.138161 25.113657,38.525417 25.150345,26.380529 
	C25.151213,26.093407 25.396503,25.807024 25.517124,25.543589 
	C30.079849,25.057777 34.643314,24.749889 39.128407,23.983383 
	C40.435059,23.760080 41.517979,22.227638 42.703453,21.295279 
	C41.309444,20.534847 39.943176,19.182404 38.516663,19.115547 
	C32.029316,18.811516 25.525011,18.869400 18.167950,19.022490 
z"/>
<path fill="#79AB58" opacity="1.000000" stroke="none" 
	d="
M19.026804,18.797104 
	C25.525011,18.869400 32.029316,18.811516 38.516663,19.115547 
	C39.943176,19.182404 41.309444,20.534847 42.703453,21.295280 
	C41.517979,22.227638 40.435059,23.760080 39.128407,23.983383 
	C34.643314,24.749889 30.079849,25.057777 25.517124,25.543589 
	C25.396503,25.807024 25.151213,26.093407 25.150345,26.380529 
	C25.113657,38.525417 22.888958,38.138161 36.718388,38.012939 
	C38.195614,37.999565 39.677940,38.549149 41.120258,39.620609 
	C36.365589,43.924873 30.550550,40.672527 25.057320,42.623703 
	C25.057320,46.550400 24.809586,50.684238 25.215019,54.752998 
	C25.329979,55.906700 27.262712,57.634041 28.512869,57.776985 
	C32.124943,58.189976 35.838997,57.683395 39.460918,58.051029 
	C40.989372,58.206165 42.387356,59.646698 43.844643,60.502953 
	C42.303814,61.664467 40.854210,63.644054 39.204384,63.828018 
	C34.933350,64.304260 30.574049,63.992718 26.249992,63.988861 
	C19.890123,63.983192 18.316755,62.426369 17.981575,54.963501 
	C17.968573,46.933907 17.849653,39.777443 18.023649,32.628101 
	C18.135983,28.012363 18.677580,23.407076 19.026804,18.797104 
z"/>
<path fill="#B3D39C" opacity="1.000000" stroke="none" 
	d="
M18.597378,18.909798 
	C18.677580,23.407076 18.135983,28.012363 18.023649,32.628101 
	C17.849653,39.777443 17.968573,46.933907 17.957458,54.556854 
	C17.303782,53.629128 16.078674,52.222870 16.100351,50.836102 
	C16.259340,40.665035 16.653606,30.497320 17.045650,20.331324 
	C17.063005,19.881289 17.777945,19.458155 18.597378,18.909798 
z"/>
</svg>